<svg id="Regione_puglia_header" data-name="Regione puglia header" xmlns="http://www.w3.org/2000/svg" xmlns:xlink="http://www.w3.org/1999/xlink" width="123.421" height="58.282" viewBox="0 0 123.421 58.282">
  <defs>
    <clipPath id="clip-path">
      <rect id="Rectangle_2394" data-name="Rectangle 2394" width="123.421" height="58.282" fill="none"/>
    </clipPath>
  </defs>
  <g id="Group_6413" data-name="Group 6413">
    <g id="Group_6412" data-name="Group 6412" clip-path="url(#clip-path)">
      <path id="Path_6361" data-name="Path 6361" d="M487.219,928.787c-.66.015-1.32.038-1.976-.006-.447-.03-.526.126-.523.538.019,2.7.01,5.407.01,8.216-.145-.215-.231-.336-.313-.459q-2.566-3.97-5.123-7.943a.655.655,0,0,0-.663-.348c-.547.025-1.1.028-1.647,0-.335-.017-.436.067-.435.419.017,2.472.01,4.944.01,7.417,0,2.045.012,4.091-.01,6.14,0,.378.107.452.457.438.658-.03,1.318-.03,1.976,0,.335.014.4-.1.4-.409-.013-2.623-.007-5.245-.007-7.868v-.512c.135.209.207.316.278.425q2.563,3.971,5.12,7.944a.732.732,0,0,0,.744.425,17.144,17.144,0,0,1,1.73-.007c.229.006.3-.058.3-.3q-.01-6.9,0-13.8c0-.269-.091-.316-.331-.31" transform="translate(-376.149 -911.708)" fill="#273347"/>
      <path id="Path_6362" data-name="Path 6362" d="M417.073,935.057c-.927.118-1.861.025-2.791.056-.226.009-.191-.139-.191-.271,0-.549,0-1.1,0-1.647,0-.521.009-1.04-.006-1.561,0-.216.032-.312.282-.308.836.018,1.673-.007,2.508.009a1.835,1.835,0,0,1,1.867,1.754,1.8,1.8,0,0,1-1.669,1.967m2.049,2.255c-.13-.249-.113-.354.167-.47a3.393,3.393,0,0,0,1.45-1.118,4.157,4.157,0,0,0,.464-4.32,4,4,0,0,0-3.478-2.526c-2.063-.212-4.144-.048-6.216-.092-.281,0-.22.175-.22.327q0,1.565,0,3.131c0,3.515.006,7.032-.007,10.546,0,.321.075.419.4.405.671-.026,1.346-.028,2.017,0,.339.016.4-.1.4-.41-.013-1.662,0-3.324-.013-4.985,0-.287.067-.383.36-.364a10.707,10.707,0,0,0,1.277,0,.477.477,0,0,1,.528.327c.825,1.712,1.669,3.416,2.5,5.123.087.178.156.313.409.308.974-.019,1.951-.007,3-.007-.106-.223-.184-.395-.271-.564q-1.38-2.657-2.767-5.312" transform="translate(-364.426 -911.706)" fill="#273347"/>
      <path id="Path_6363" data-name="Path 6363" d="M446.477,943.082a4.7,4.7,0,0,0,3.755-3.9,21.579,21.579,0,0,0,.153-3.818c0-.233-.132-.226-.294-.226-1.62,0-3.24.006-4.86,0-.241,0-.3.083-.3.31.013.589.016,1.181,0,1.771-.007.244.082.3.308.292.671-.011,1.345,0,2.017,0,.143,0,.306-.049.319.2a2.58,2.58,0,0,1-1.86,2.952,2.284,2.284,0,0,1-3.079-1.856,20.717,20.717,0,0,1,.039-5.864,1.982,1.982,0,0,1,1.166-1.5A2.533,2.533,0,0,1,447.439,933c.054.164.071.3.3.3.795-.013,1.591-.011,2.389,0,.194,0,.234-.067.2-.239a5.359,5.359,0,0,0-1.7-3.115,5.5,5.5,0,0,0-5.339-1.025,4.6,4.6,0,0,0-3.446,3.7,14.318,14.318,0,0,0-.135,3.32c0,.81-.035,1.62.009,2.427a4.808,4.808,0,0,0,1.19,3.161,5.411,5.411,0,0,0,5.569,1.557" transform="translate(-369.527 -911.683)" fill="#273347"/>
      <path id="Path_6364" data-name="Path 6364" d="M451.062,959.667c-1.635,0-3.269,0-4.9-.006-.222,0-.279.07-.273.282.011.591.017,1.182,0,1.771-.007.248.048.331.312.323.687-.021,1.373,0,2.061-.011.22,0,.279.066.273.28a5.44,5.44,0,0,1-.087,1.062,2.467,2.467,0,0,1-2.627,1.9,2.161,2.161,0,0,1-2.239-1.98,24.613,24.613,0,0,1-.049-5.339,2.225,2.225,0,0,1,1.564-2.108,2.5,2.5,0,0,1,3.279,1.638c.049.148.023.348.307.342.863-.021,1.729-.007,2.633-.007A5.647,5.647,0,0,0,450,954.893a5.375,5.375,0,0,0-4.492-1.694,4.978,4.978,0,0,0-4.807,4.486,33.9,33.9,0,0,0,0,5.634,4.524,4.524,0,0,0,1.451,3.045,5.454,5.454,0,0,0,5.09,1.29,4.73,4.73,0,0,0,3.885-3.729,19.211,19.211,0,0,0,.2-4.062c.006-.219-.131-.2-.269-.2" transform="translate(-369.69 -916.094)" fill="#273347"/>
      <path id="Path_6365" data-name="Path 6365" d="M468.749,938.768a2.374,2.374,0,0,1-4.688-.036,22.585,22.585,0,0,1-.152-2.831,22.081,22.081,0,0,1,.154-2.707,2.374,2.374,0,0,1,4.682-.041,21.7,21.7,0,0,1,0,5.615m2.9-5.364a4.908,4.908,0,0,0-1.307-3.117,5.363,5.363,0,0,0-5.218-1.48,4.7,4.7,0,0,0-3.867,4.062,26.027,26.027,0,0,0-.043,6,4.459,4.459,0,0,0,1.314,2.85,5.4,5.4,0,0,0,4.389,1.542,4.988,4.988,0,0,0,4.591-3.821,19.684,19.684,0,0,0,.226-3.391c-.007-.942,0-1.792-.085-2.641" transform="translate(-373.368 -911.686)" fill="#273347"/>
      <path id="Path_6366" data-name="Path 6366" d="M426.368,942.807c0,.205-.048.393.294.391q4.447-.02,8.9,0c.214,0,.284-.054.28-.274-.013-.619-.025-1.237,0-1.853.014-.331-.057-.436-.413-.432-1.964.021-3.927.006-5.89.016-.263,0-.348-.06-.342-.335.017-.92.023-1.839,0-2.76-.007-.314.08-.381.384-.378,1.62.016,3.241-.006,4.86.017.357,0,.431-.1.413-.431a15.053,15.053,0,0,1,0-1.688c.023-.363-.109-.419-.436-.414-1.606.017-3.213,0-4.82.016-.334,0-.411-.1-.4-.416.021-.85.023-1.7,0-2.553-.009-.31.071-.383.38-.381,1.963.015,3.928,0,5.89.016.317,0,.387-.086.376-.386-.025-.6-.025-1.208,0-1.811.01-.289-.073-.364-.363-.363q-4.366.017-8.733,0c-.308,0-.387.08-.386.389.013,2.264.007,4.531.007,6.8Z" transform="translate(-367.135 -911.709)" fill="#273347"/>
      <path id="Path_6367" data-name="Path 6367" d="M496.278,931.327c1.975.019,3.953,0,5.929.015.242,0,.335-.039.325-.309-.022-.63-.025-1.263,0-1.893.013-.3-.092-.354-.37-.352q-4.366.015-8.73,0c-.349,0-.391.12-.39.417.012,2.266.006,4.531.006,6.8v6.836c0,.186-.053.367.269.366q4.467-.02,8.936,0c.218,0,.28-.062.275-.276-.011-.632-.02-1.263,0-1.9.013-.3-.057-.387-.374-.384-1.963.017-3.927,0-5.889.014-.3,0-.425-.048-.415-.393.028-.89.025-1.784,0-2.674-.009-.323.077-.411.4-.408,1.647.019,3.295,0,4.941.015.259,0,.357-.05.345-.331-.023-.6-.026-1.208,0-1.811.013-.307-.065-.393-.381-.389-1.647.017-3.293,0-4.94.013-.29,0-.371-.081-.365-.367.017-.852.025-1.7,0-2.553-.012-.342.075-.432.422-.429" transform="translate(-379.112 -911.709)" fill="#273347"/>
      <path id="Path_6368" data-name="Path 6368" d="M435.744,953.309c-.687.013-1.374.025-2.059,0-.351-.016-.423.094-.423.431q.02,4.367,0,8.733a5.5,5.5,0,0,1-.071.859,2.468,2.468,0,0,1-4.789.173,4.605,4.605,0,0,1-.1-1.1c0-2.885-.009-5.768.009-8.652,0-.372-.1-.459-.457-.444a17.91,17.91,0,0,1-1.853,0c-.41-.021-.557.071-.547.523.034,1.51.011,3.02.011,4.531q0,2.12,0,4.243a4.92,4.92,0,0,0,1.652,3.924,5.535,5.535,0,0,0,3.842,1.286,4.951,4.951,0,0,0,5.1-4.924c.052-3.09.008-6.178.017-9.269,0-.272-.1-.316-.336-.309" transform="translate(-366.972 -916.113)" fill="#273347"/>
      <path id="Path_6369" data-name="Path 6369" d="M478.524,962.771l1.784-5.148c.6,1.768,1.16,3.436,1.738,5.148Zm2.943-9.136a.4.4,0,0,0-.465-.328,15.008,15.008,0,0,1-1.524,0c-.273-.014-.38.1-.464.335-.425,1.2-.863,2.391-1.3,3.587q-1.839,5.063-3.684,10.125c-.1.277-.1.374.235.364.769-.021,1.537-.013,2.307,0a.328.328,0,0,0,.376-.271c.207-.665.448-1.318.66-1.982a.382.382,0,0,1,.434-.315c1.482.015,2.965.012,4.448,0a.342.342,0,0,1,.406.285c.2.669.432,1.327.655,1.988.051.154.087.3.32.291.893-.016,1.783-.006,2.728-.006-.271-.744-.517-1.422-.765-2.1q-2.184-5.989-4.368-11.977" transform="translate(-375.686 -916.114)" fill="#273347"/>
      <path id="Path_6370" data-name="Path 6370" d="M416.9,959.738c-.41.011-.821,0-1.233,0s-.85-.006-1.275,0c-.2,0-.3-.025-.294-.263.011-1.123.01-2.249,0-3.372,0-.2.06-.258.255-.257.865.011,1.729-.02,2.592.012a1.871,1.871,0,0,1,1.839,2.005,1.85,1.85,0,0,1-1.886,1.869m.7-6.355c-2.028-.164-4.061-.032-6.091-.074-.32-.006-.221.212-.221.363q-.009,3.4,0,6.8c0,2.294.006,4.586-.006,6.878,0,.28.055.38.354.368.7-.023,1.4-.028,2.1,0,.331.013.376-.108.374-.4-.015-1.537.006-3.075-.016-4.614,0-.354.111-.418.438-.422a22.893,22.893,0,0,0,3.371-.083,4.453,4.453,0,0,0-.3-8.821" transform="translate(-364.426 -916.112)" fill="#273347"/>
      <path id="Path_6371" data-name="Path 6371" d="M465.08,965.159c-1.907.017-3.815,0-5.721.017-.342,0-.427-.077-.425-.422.015-3.679.006-7.356.015-11.033,0-.308-.054-.432-.4-.418-.669.032-1.344.029-2.015,0-.331-.013-.409.09-.407.411.014,2.264.007,4.528.007,6.792s0,4.556,0,6.834c0,.272.048.378.354.377q4.323-.018,8.644,0c.247,0,.337-.057.33-.318-.017-.615-.021-1.235,0-1.852.011-.3-.059-.391-.38-.388" transform="translate(-372.481 -916.113)" fill="#273347"/>
      <path id="Path_6372" data-name="Path 6372" d="M471.833,953.309c-.713.013-1.429.023-2.141,0-.333-.012-.408.093-.406.412.013,2.266.007,4.53.007,6.8s0,4.557-.007,6.836c0,.286.071.377.366.368.726-.021,1.454-.015,2.181,0,.239.006.3-.075.3-.3q-.009-6.9,0-13.8c0-.231-.062-.308-.3-.3" transform="translate(-374.845 -916.113)" fill="#273347"/>
      <path id="Path_6373" data-name="Path 6373" d="M458,942.788c-.013-2.25-.007-4.5-.007-6.753,0-2.291,0-4.584.006-6.876,0-.276-.051-.383-.354-.372-.713.023-1.426.016-2.14,0-.234,0-.335.028-.333.3q.011,6.9,0,13.793c0,.271.089.315.329.308.7-.014,1.4-.025,2.1,0,.336.013.4-.1.4-.412" transform="translate(-372.31 -911.71)" fill="#273347"/>
      <path id="Path_6374" data-name="Path 6374" d="M394.181,963.285v7.705a2.628,2.628,0,0,1-.865,1.617,2.4,2.4,0,0,1-1.505.752h-.04c-1.887-.021-5.131-.01-7.861-.01l10.178-10.065Z" transform="translate(-359.51 -917.906)" fill="#007ac1"/>
      <path id="Path_6375" data-name="Path 6375" d="M384.5,956.337V945.778l-7.333-7.53-.043-.041h-11.27l-7.344,7.53-.032.041v10.559l7.613,7.612h10.765Zm4.369-12v13.773h-.094L378.6,968.173c-2.606,0-4.739.01-4.739.01a1.9,1.9,0,0,0-1.256.474,3.515,3.515,0,0,0-.742,2.226h-.536a3.521,3.521,0,0,0-.741-2.226,1.877,1.877,0,0,0-1.258-.474s-2.224-.01-4.913-.01l-10.044-9.951h-.041V944.315l9.7-9.849h14.948l9.726,9.869Z" transform="translate(-354.197 -912.73)" fill="#d9000d"/>
    </g>
  </g>
  <path id="Path_6376" data-name="Path 6376" d="M394.264,934.466v9.87H394.1l-9.725-9.87h9.89Z" transform="translate(-359.594 -912.73)" fill="#007ac1"/>
  <path id="Path_6377" data-name="Path 6377" d="M388.682,924.307H354.327v8.334h34.541v-8.334Z" transform="translate(-354.197 -910.905)" fill="#ffa900"/>
  <g id="Group_6415" data-name="Group 6415">
    <g id="Group_6414" data-name="Group 6414" clip-path="url(#clip-path)">
      <path id="Path_6378" data-name="Path 6378" d="M385.754,910.573c0,.165-.174.34-.452.525-.146-1.432-6.584-2.286-12.826-2.286h-.053c-6.252,0-12.682.855-12.836,2.286-.267-.185-.453-.36-.453-.525,0-1.124,5.336-2.339,13.289-2.339h.053a52.8,52.8,0,0,1,9.621.752c2.329.443,3.657,1.03,3.657,1.587" transform="translate(-355.06 -908.018)" fill="#ffa900"/>
      <path id="Path_6379" data-name="Path 6379" d="M384.731,915.48c0-.978-5.059-2.07-12.3-2.07h-.061c-7.232,0-12.29,1.092-12.29,2.07s5.058,2.071,12.3,2.071h.051c7.233,0,12.3-1.1,12.3-2.071m.174-3.966a.5.5,0,0,0,.135-.38c0-1-5.182-2.134-12.619-2.134h-.041c-7.427,0-12.62,1.134-12.62,2.134a.509.509,0,0,0,.134.38,3.441,3.441,0,0,0,.412.29l2.061.258-1.525,1.266-.226,1.35c.175-.081.371-.165.6-.248l.238-.081c2.318-.752,6.634-1.144,10.93-1.144h.051c4.285,0,8.6.392,10.931,1.144l.226.081c.227.083.423.167.6.248l-.227-1.35-1.514-1.266,2.06-.258a3.035,3.035,0,0,0,.4-.29m.351-.464c.278-.185.453-.36.453-.525,0-.556-1.329-1.144-3.656-1.587a52.824,52.824,0,0,0-9.622-.752h-.051c-7.953,0-13.289,1.215-13.289,2.339,0,.165.186.34.454.525.154-1.432,6.582-2.286,12.836-2.286h.051c6.243,0,12.682.855,12.826,2.286m.66-.525c0,.3-.227.566-.619.8a1.428,1.428,0,0,1-.618.619l.536.989-1,.371.258,1.546c.3.194.475.4.475.627,0,1.442-6.356,2.309-12.518,2.309h-.061c-6.161,0-12.517-.866-12.517-2.309,0-.226.175-.432.475-.627l.258-1.546-1-.371.536-.989a1.485,1.485,0,0,1-.619-.619c-.391-.237-.617-.5-.617-.8,0-1.587,6.839-2.555,13.485-2.555h.061c6.644,0,13.486.968,13.486,2.555" transform="translate(-355.016 -907.971)" fill="#161417"/>
    </g>
  </g>
  <path id="Path_6380" data-name="Path 6380" d="M385.408,946.6v10.56l-7.644,7.612H367l-7.614-7.612V946.6l.032-.041,7.344-7.531h11.27l.042.041Z" transform="translate(-355.105 -913.549)" fill="#e8e8e8"/>
  <g id="Group_6417" data-name="Group 6417">
    <g id="Group_6416" data-name="Group 6416" clip-path="url(#clip-path)">
      <path id="Path_6381" data-name="Path 6381" d="M385.231,911.359a.514.514,0,0,1-.134.382,3.246,3.246,0,0,1-.4.288l-2.061.258,1.515,1.268.227,1.35c-.176-.083-.371-.165-.6-.248l-.227-.083c-2.327-.751-6.644-1.143-10.929-1.143h-.053c-4.295,0-8.612.392-10.929,1.143l-.237.083c-.227.083-.422.165-.6.248l.226-1.35,1.525-1.268-2.061-.258a3.458,3.458,0,0,1-.412-.288.514.514,0,0,1-.134-.382c0-1,5.191-2.132,12.618-2.132h.043c7.437,0,12.618,1.132,12.618,2.132" transform="translate(-355.207 -908.197)" fill="#ffa900"/>
      <path id="Path_6382" data-name="Path 6382" d="M372.826,918.361c5.449,0,11.219-.567,11.219-1.628s-5.8-1.627-11.219-1.627H372.5c-5.419,0-11.207.555-11.207,1.627s5.758,1.628,11.207,1.628h.331Zm-.134-3.76c7.242,0,12.3,1.092,12.3,2.072s-5.068,2.069-12.3,2.069h-.051c-7.242,0-12.3-1.1-12.3-2.069S365.4,914.6,372.63,914.6h.063Z" transform="translate(-355.277 -909.162)" fill="#ffa900"/>
      <path id="Path_6383" data-name="Path 6383" d="M373.084,915.467c7.1,0,10.992.824,10.992,1.423s-3.926,1.42-10.992,1.42h-.331c-7.066,0-10.98-.833-10.98-1.42s3.884-1.423,10.98-1.423h.331Z" transform="translate(-355.534 -909.317)" fill="#fff"/>
      <path id="Path_6384" data-name="Path 6384" d="M384.026,916.844c0-.6-3.894-1.422-10.992-1.422H372.7c-7.1,0-10.982.824-10.982,1.422s3.913,1.423,10.982,1.423h.329c7.068,0,10.992-.836,10.992-1.423m.227,0c0,1.062-5.77,1.628-11.219,1.628H372.7c-5.45,0-11.209-.566-11.209-1.628s5.79-1.627,11.209-1.627h.329c5.419,0,11.219.556,11.219,1.627" transform="translate(-355.484 -909.273)" fill="#161417"/>
      <path id="Path_6385" data-name="Path 6385" d="M364.411,973.374c-2.688,0-5.84-.011-7.675.01h-.04a2.441,2.441,0,0,1-1.515-.752,2.552,2.552,0,0,1-.855-1.617v-7.592h.041Z" transform="translate(-354.197 -917.931)" fill="#007ac1"/>
    </g>
  </g>
  <path id="Path_6386" data-name="Path 6386" d="M354.326,934.466v9.849l9.7-9.849Z" transform="translate(-354.197 -912.73)" fill="#007ac1"/>
  <rect id="Rectangle_2397" data-name="Rectangle 2397" width="0.257" height="14.138" transform="matrix(0.704, -0.71, 0.71, 0.704, 0.08, 45.583)" fill="#161417"/>
  <path id="Path_6387" data-name="Path 6387" d="M354.189,944.223l.092.092.111.071,9.705-9.851-.182-.18Z" transform="translate(-354.172 -912.71)" fill="#161417"/>
  <path id="Path_6388" data-name="Path 6388" d="M367.024,964.611h10.658l7.569-7.536V946.62l-7.3-7.5H366.789l-7.3,7.487v10.464Zm10.765.258H366.917l-.038-.038-7.65-7.65V946.525l.057-.075,7.394-7.584h11.377l.079.079,7.374,7.571V957.18l-.039.038Z" transform="translate(-355.077 -913.52)" fill="#161417"/>
  <rect id="Rectangle_2398" data-name="Rectangle 2398" width="0.257" height="13.855" transform="translate(24.69 21.826) rotate(-44.574)" fill="#161417"/>
  <path id="Path_6389" data-name="Path 6389" d="M383.979,973.421l-.192-.173.01-.01,10.178-10.065.182.183Z" transform="translate(-359.488 -917.886)" fill="#161417"/>
  <rect id="Rectangle_2399" data-name="Rectangle 2399" width="34.378" height="0.256" transform="translate(0.128 21.608)" fill="#161417"/>
  <g id="Group_6419" data-name="Group 6419">
    <g id="Group_6418" data-name="Group 6418" clip-path="url(#clip-path)">
      <path id="Path_6390" data-name="Path 6390" d="M371.421,968.9h.285a3.372,3.372,0,0,1,.781-2.194,2.03,2.03,0,0,1,1.339-.505s2.135-.01,4.743-.01l2.157,0c2.112,0,4.3,0,5.7.011h.04a2.267,2.267,0,0,0,1.409-.711,2.5,2.5,0,0,0,.832-1.546V924.409H354.427v39.553a2.429,2.429,0,0,0,.811,1.519,2.341,2.341,0,0,0,1.444.722h.028c1.363-.016,3.492-.014,5.551-.011l2.122,0c2.69,0,4.917.01,4.917.01a2.014,2.014,0,0,1,1.35.514,3.372,3.372,0,0,1,.773,2.185m.41.258h-.665v-.129a3.409,3.409,0,0,0-.7-2.129,1.771,1.771,0,0,0-1.175-.441s-2.227-.01-4.912-.01l-2.122,0c-2.057,0-4.187,0-5.549.011h-.043a2.6,2.6,0,0,1-1.61-.793,2.686,2.686,0,0,1-.889-1.689V924.151h34.8v39.81a2.757,2.757,0,0,1-.91,1.715,2.52,2.52,0,0,1-1.575.783h-.055c-1.406-.016-3.591-.016-5.7-.011l-2.157,0c-2.607,0-4.739.01-4.739.01a1.793,1.793,0,0,0-1.163.432,3.418,3.418,0,0,0-.706,2.138v.129Z" transform="translate(-354.168 -910.877)" fill="#161417"/>
    </g>
  </g>
  <path id="Path_6391" data-name="Path 6391" d="M374.887,909.952l-2.164,1.081,2.164,1.185,2.164-1.185Z" transform="translate(-357.501 -908.327)" fill="#007ac1"/>
  <path id="Path_6392" data-name="Path 6392" d="M372.941,911.007l1.886,1.032,1.886-1.032-1.886-.943Zm1.886,1.326-.061-.033-2.38-1.3,2.441-1.222.057.03L377.269,911Z" transform="translate(-357.44 -908.295)" fill="#161615"/>
  <g id="Group_6421" data-name="Group 6421">
    <g id="Group_6420" data-name="Group 6420" clip-path="url(#clip-path)">
      <path id="Path_6393" data-name="Path 6393" d="M383.117,911.222c-.814-.164-1.569.039-1.706.427s.428.846,1.239.98c.812.165,1.569-.039,1.7-.4.1-.416-.428-.87-1.236-1.009" transform="translate(-359.058 -908.545)" fill="#00863c"/>
      <path id="Path_6394" data-name="Path 6394" d="M382.528,911.266c-.54,0-.944.176-1.023.4a.272.272,0,0,0,.038.237,1.608,1.608,0,0,0,1.1.572c.77.154,1.457-.038,1.56-.316a.371.371,0,0,0-.068-.282,1.626,1.626,0,0,0-1.069-.553l0,0a2.732,2.732,0,0,0-.536-.054m.658,1.519a3,3,0,0,1-.588-.059,1.838,1.838,0,0,1-1.278-.695.524.524,0,0,1-.058-.454c.163-.461.971-.686,1.852-.511a1.845,1.845,0,0,1,1.237.669.621.621,0,0,1,.1.5c-.128.347-.645.553-1.263.553" transform="translate(-359.029 -908.517)" fill="#161417"/>
      <path id="Path_6395" data-name="Path 6395" d="M379.7,910.352a.28.28,0,1,1,.56,0,.28.28,0,0,1-.56,0" transform="translate(-358.754 -908.348)" fill="#ffa900"/>
      <path id="Path_6396" data-name="Path 6396" d="M379.955,910.173a.151.151,0,1,0,.152.151.152.152,0,0,0-.152-.151m0,.56a.409.409,0,1,1,.409-.409.409.409,0,0,1-.409.409" transform="translate(-358.726 -908.32)" fill="#161417"/>
      <path id="Path_6397" data-name="Path 6397" d="M379.594,912.441a.279.279,0,1,1,.278.281.279.279,0,0,1-.278-.281" transform="translate(-358.735 -908.723)" fill="#ffa900"/>
      <path id="Path_6398" data-name="Path 6398" d="M379.844,912.26a.152.152,0,1,0,.151.153.15.15,0,0,0-.151-.153m0,.562a.41.41,0,1,1,.409-.409.407.407,0,0,1-.409.409" transform="translate(-358.707 -908.695)" fill="#161417"/>
      <path id="Path_6399" data-name="Path 6399" d="M386,913.4a.28.28,0,0,1,.56,0,.28.28,0,1,1-.56,0" transform="translate(-359.885 -908.896)" fill="#ffa900"/>
      <path id="Path_6400" data-name="Path 6400" d="M386.248,913.223a.151.151,0,1,0,.152.15.151.151,0,0,0-.152-.15m0,.559a.408.408,0,1,1,.409-.409.41.41,0,0,1-.409.409" transform="translate(-359.857 -908.868)" fill="#161417"/>
      <path id="Path_6401" data-name="Path 6401" d="M386.4,911.58a.28.28,0,1,1,.281.281.28.28,0,0,1-.281-.281" transform="translate(-359.958 -908.569)" fill="#ffa900"/>
      <path id="Path_6402" data-name="Path 6402" d="M386.658,911.4a.151.151,0,1,0,.152.15.151.151,0,0,0-.152-.15m0,.559a.408.408,0,1,1,.409-.409.41.41,0,0,1-.409.409" transform="translate(-359.93 -908.541)" fill="#161417"/>
      <path id="Path_6403" data-name="Path 6403" d="M366.954,911.222c.814-.164,1.569.039,1.706.427s-.427.846-1.238.98c-.812.165-1.569-.039-1.7-.4-.1-.416.427-.87,1.235-1.009" transform="translate(-356.241 -908.545)" fill="#00863c"/>
      <path id="Path_6404" data-name="Path 6404" d="M367.486,911.266a2.839,2.839,0,0,0-.534.053l0,0a1.618,1.618,0,0,0-1.066.555.368.368,0,0,0-.066.3c.1.262.782.457,1.553.3a1.619,1.619,0,0,0,1.105-.572.277.277,0,0,0,.036-.237c-.079-.223-.483-.4-1.023-.4m-.66,1.521c-.615,0-1.132-.2-1.258-.539a.623.623,0,0,1,.1-.514,1.846,1.846,0,0,1,1.237-.667c.874-.176,1.687.048,1.852.509a.538.538,0,0,1-.058.456,1.847,1.847,0,0,1-1.281.692,2.834,2.834,0,0,1-.588.062" transform="translate(-356.212 -908.517)" fill="#161417"/>
      <path id="Path_6405" data-name="Path 6405" d="M370.9,910.352a.28.28,0,1,0-.56,0,.28.28,0,0,0,.56,0" transform="translate(-357.072 -908.348)" fill="#ffa900"/>
      <path id="Path_6406" data-name="Path 6406" d="M370.589,910.173a.151.151,0,1,0,.152.151.152.152,0,0,0-.152-.151m0,.56a.409.409,0,1,1,.409-.409.409.409,0,0,1-.409.409" transform="translate(-357.044 -908.32)" fill="#161417"/>
      <path id="Path_6407" data-name="Path 6407" d="M371.006,912.441a.279.279,0,1,0-.278.281.279.279,0,0,0,.278-.281" transform="translate(-357.092 -908.723)" fill="#ffa900"/>
      <path id="Path_6408" data-name="Path 6408" d="M370.7,912.26a.152.152,0,0,0,0,.3.152.152,0,0,0,0-.3m0,.562a.41.41,0,1,1,.408-.409.409.409,0,0,1-.408.409" transform="translate(-357.064 -908.695)" fill="#161417"/>
      <path id="Path_6409" data-name="Path 6409" d="M364.6,913.4a.28.28,0,0,0-.56,0,.28.28,0,1,0,.56,0" transform="translate(-355.942 -908.896)" fill="#ffa900"/>
      <path id="Path_6410" data-name="Path 6410" d="M364.3,913.223a.15.15,0,0,0-.152.15.151.151,0,1,0,.152-.15m0,.559a.408.408,0,1,1,.409-.409.41.41,0,0,1-.409.409" transform="translate(-355.914 -908.868)" fill="#161417"/>
      <path id="Path_6411" data-name="Path 6411" d="M364.194,911.58a.28.28,0,1,0-.281.281.28.28,0,0,0,.281-.281" transform="translate(-355.868 -908.569)" fill="#ffa900"/>
      <path id="Path_6412" data-name="Path 6412" d="M363.886,911.4a.151.151,0,1,0,.152.15.151.151,0,0,0-.152-.15m0,.559a.408.408,0,1,1,.409-.409.41.41,0,0,1-.409.409" transform="translate(-355.84 -908.541)" fill="#161417"/>
      <path id="Path_6413" data-name="Path 6413" d="M375.376,911.163a.473.473,0,0,1-.211.036v-.483a.047.047,0,0,1,.022-.048.159.159,0,0,1,.076-.013.167.167,0,0,1,.158.075.4.4,0,0,1,.042.2c0,.121-.028.2-.086.235m.274-.495a.667.667,0,0,0-.349-.075h-.576v.043a.267.267,0,0,1,.117.038.182.182,0,0,1,.031.13v.792a.19.19,0,0,1-.031.126.165.165,0,0,1-.117.038v.045h.6v-.045a.226.226,0,0,1-.126-.034.184.184,0,0,1-.03-.13v-.336c.107,0,.185,0,.24-.007a.618.618,0,0,0,.163-.041.339.339,0,0,0,.155-.124.313.313,0,0,0,.045-.166.272.272,0,0,0-.119-.256" transform="translate(-357.861 -908.442)" fill="#161615"/>
      <path id="Path_6414" data-name="Path 6414" d="M389.982,930.276h.007a1.441,1.441,0,1,0-1.446-1.444v0a1.44,1.44,0,0,0,1.439,1.442" transform="translate(-360.342 -911.459)" fill="#00863c"/>
      <path id="Path_6415" data-name="Path 6415" d="M389.954,930.119h0a1.312,1.312,0,0,0,0-2.624h0a1.312,1.312,0,0,0,0,2.624m.006.258h-.006a1.569,1.569,0,0,1-1.1-2.683,1.553,1.553,0,0,1,1.106-.457h0a1.57,1.57,0,0,1,0,3.14" transform="translate(-360.314 -911.431)" fill="#161417"/>
      <path id="Path_6416" data-name="Path 6416" d="M383.987,930.276h.006a1.441,1.441,0,1,0-1.446-1.444v0a1.441,1.441,0,0,0,1.44,1.442" transform="translate(-359.265 -911.459)" fill="#00863c"/>
      <path id="Path_6417" data-name="Path 6417" d="M383.959,930.119h0a1.312,1.312,0,1,0,0-2.624h0a1.312,1.312,0,0,0,0,2.624m0,.258h0a1.57,1.57,0,0,1-1.107-2.683,1.554,1.554,0,0,1,1.107-.457h0a1.57,1.57,0,0,1,0,3.14" transform="translate(-359.237 -911.431)" fill="#161417"/>
      <path id="Path_6418" data-name="Path 6418" d="M377.991,930.276H378a1.441,1.441,0,1,0-1.446-1.444v0a1.441,1.441,0,0,0,1.44,1.442" transform="translate(-358.189 -911.459)" fill="#00863c"/>
      <path id="Path_6419" data-name="Path 6419" d="M377.963,930.119h0a1.312,1.312,0,0,0,0-2.624h0a1.312,1.312,0,0,0,0,2.624m.006.258h-.006a1.562,1.562,0,0,1-1.109-.461,1.546,1.546,0,0,1-.459-1.109,1.572,1.572,0,0,1,1.569-1.569h0a1.57,1.57,0,0,1,0,3.14" transform="translate(-358.161 -911.431)" fill="#161417"/>
      <path id="Path_6420" data-name="Path 6420" d="M371.995,930.276H372a1.441,1.441,0,1,0-1.446-1.444v0a1.441,1.441,0,0,0,1.44,1.442" transform="translate(-357.112 -911.459)" fill="#00863c"/>
      <path id="Path_6421" data-name="Path 6421" d="M371.966,930.119h0a1.312,1.312,0,1,0,0-2.624h0a1.312,1.312,0,0,0,0,2.624m.006.258h-.006a1.569,1.569,0,0,1-1.1-2.683,1.553,1.553,0,0,1,1.106-.457h0a1.57,1.57,0,0,1,0,3.14" transform="translate(-357.083 -911.431)" fill="#161417"/>
      <path id="Path_6422" data-name="Path 6422" d="M360,930.276h.006a1.441,1.441,0,1,0-1.445-1.444v0A1.44,1.44,0,0,0,360,930.276" transform="translate(-354.958 -911.459)" fill="#00863c"/>
      <path id="Path_6423" data-name="Path 6423" d="M359.976,930.119h0a1.312,1.312,0,0,0,0-2.624h0a1.312,1.312,0,0,0,0,2.624m0,.258h0a1.57,1.57,0,0,1-1.106-2.683,1.553,1.553,0,0,1,1.106-.457h0a1.57,1.57,0,0,1,0,3.14" transform="translate(-354.93 -911.431)" fill="#161417"/>
      <path id="Path_6424" data-name="Path 6424" d="M366,930.276H366a1.441,1.441,0,1,0-1.445-1.444v0A1.44,1.44,0,0,0,366,930.276" transform="translate(-356.035 -911.459)" fill="#00863c"/>
      <path id="Path_6425" data-name="Path 6425" d="M365.971,930.119h0a1.312,1.312,0,0,0,0-2.624h0a1.312,1.312,0,0,0,0,2.624m.006.258h-.006a1.57,1.57,0,0,1,0-3.14h0a1.57,1.57,0,0,1,0,3.14" transform="translate(-356.007 -911.431)" fill="#161417"/>
      <path id="Path_6426" data-name="Path 6426" d="M372.641,965.651l-.064.047c-.034-.035-.024-.066.019-.088Z" transform="translate(-357.471 -918.324)" fill="#f9a700"/>
      <path id="Path_6427" data-name="Path 6427" d="M369.284,946.848a1.487,1.487,0,0,1,.153-1.181,1.3,1.3,0,0,1,.361,1.072c-.011.088-.048.157.106.144s.167.154.207.267a2.781,2.781,0,0,0,.141.614c0-.258.007-.446,0-.634-.029-.532-.019-1.041.611-1.239-.144-.272-.308-.333-.532-.137a1.127,1.127,0,0,1-.2.12c-.056.034-.108.036-.143-.032s-.013-.107.048-.14.112-.077.172-.1c.212-.088.276-.185.087-.381-.087-.09-.126-.116-.248-.07a.994.994,0,0,1-1.016-.083c-.124-.1-.286-.217-.2-.4s.271-.108.416-.084a.923.923,0,0,1,.422.175.649.649,0,0,0,.4.154l-.4-.642a.648.648,0,0,1-.5.2c-.167-.006-.339-.046-.339-.271,0-.2.144-.256.308-.273a2.56,2.56,0,0,1,.29,0c-.126-.22-.248-.418-.357-.624a.958.958,0,0,1-.138-.464c0-.137-.015-.288.148-.342s.239.089.3.205a2.929,2.929,0,0,1,.371,1.045c.12-.23.212-.412.313-.607.4.623.237,1.346.445,2.058.043-.162.072-.271.1-.38.015-.051.006-.121.094-.107s.105.071.09.147a.3.3,0,0,1-.007.057c-.25.532.137.747.509,1.01a4.754,4.754,0,0,0-.044-1.335c-.025-.137-.143-.2-.231-.285a1.264,1.264,0,0,1-.021-1.824.45.45,0,0,1,.5-.09,3.539,3.539,0,0,1,.346.151c-.064-.218-.125-.4-.173-.6s-.08-.375-.121-.567a.968.968,0,0,1,.7,1.217.389.389,0,0,0,.053.382.132.132,0,0,0,.04-.021c.067-.076.007-.287.172-.239.2.059.041.215.007.307-.167.473.211.7.427,1.009a1.175,1.175,0,0,1,.372-.767c-.221-.127-.536-.2-.483-.523.038-.239.273-.143.438-.146a.351.351,0,0,0,.032.038c0-.023,0-.046.006-.071a3.856,3.856,0,0,1,.064-.685c.038-.223.135-.169.239-.071.119.111.22.24.331.363a2.565,2.565,0,0,1,.347-.489c.3.961.258,1.218-.278,1.527a3.4,3.4,0,0,0,.486.63c.12-.4.2-.786.323-1.154.034-.094-.029-.223-.058-.335s.028-.153.115-.147c.2.016.322-.121.3-.351-.014-.144-.034-.286-.048-.429a.619.619,0,0,1,.26-.52c.088-.08.137-.059.2.025a.766.766,0,0,1-.09,1.044,1.026,1.026,0,0,0-.329.484l1.145-.367c-.267.449-.536.831-1.034.9a.509.509,0,0,0-.493.562c.062.007.166-.1.214.023s-.062.153-.127.189c-.243.141-.192.372-.18.613a1.871,1.871,0,0,1,.994-.808,1.185,1.185,0,0,1-.9,1.165.174.174,0,0,0-.171.18c-.021.2-.036.4-.052.6,0,.025,0,.049.006.073a.448.448,0,0,1,.032-.039,2.893,2.893,0,0,1,.742-.486,2.315,2.315,0,0,1-.1.6c.275-.036.32.126.278.336a2.066,2.066,0,0,1-.463,1.068,4.9,4.9,0,0,1-1.4,1.2c-.057.026-.1.048-.106.117a4.867,4.867,0,0,0,.118,2.126c.18-.324.407-.56.211-.953a1.325,1.325,0,0,1,.279-1.327c.054.214.1.4.148.585a4.111,4.111,0,0,1,.071.62c.13-.084.244-.112.124-.305a.739.739,0,0,1,.13-.926c.066-.059.143-.143.22-.119s.084.139.087.224c0,.18,0,.359,0,.545a.632.632,0,0,0,.492-.359c-.082-.151-.385-.006-.354-.271a.8.8,0,0,1,.521-.461c.175,0,.156.134.164.254.131-.074.16-.215.235-.323.138-.2.128-.359-.115-.483-.069-.034-.244-.062-.154-.211s.171.019.253.051a1.157,1.157,0,0,1,.191.121.354.354,0,0,0-.071-.508,2.5,2.5,0,0,1-.564-1.237.966.966,0,0,1,.827.592,2.373,2.373,0,0,0-.051-.748c-.013-.11-.064-.139-.178-.1-.3.11-.495-.066-.662-.28a.275.275,0,0,1-.047-.323.288.288,0,0,1,.336-.1c.083.02.163.053.246.083.024.008.062.03.069.021.033-.033.008-.061-.024-.081a.88.88,0,0,1-.112-.711c.014-.163.089-.143.187-.079a.5.5,0,0,1,.248.461,5.435,5.435,0,0,0,.081.875c.016.148.076.176.2.088.057-.041.122-.154.208-.022s-.048.152-.107.181a.331.331,0,0,0-.2.391,4.294,4.294,0,0,1-.064,1.11c.4-.388.848-.679.855-1.281a1.207,1.207,0,0,1,.109-.386c.039-.109.1-.218.232-.23.162-.012.148.145.2.258a1.654,1.654,0,0,1,.852-.588c.085.771-.634.946-.993,1.372a.231.231,0,0,0,.153.089c.071.022.121.058.075.147-.035.069-.078.073-.139.037-.448-.259-.582.143-.8.382a1.158,1.158,0,0,1,1.071.19,1.115,1.115,0,0,1-1.189.212c-.275-.113-.44-.036-.536.254-.022.062-.038.126-.064.214a4.748,4.748,0,0,1,1-.278c.1-.016.226-.039.272.094.038.112-.058.179-.132.235a1.86,1.86,0,0,1-1.254.508c-.173-.015-.235.093-.3.22.073.09.19.085.281.132.058.03.133.03.092.134-.03.076-.083.09-.134.057-.374-.253-.541.037-.733.271a1.827,1.827,0,0,0-.353.479c.2.034.372-.1.584-.048a1.3,1.3,0,0,1-.859.786.565.565,0,0,0-.414.41c-.058.173-.14.336-.21.505s0,.253.176.269a.534.534,0,0,0,.633-.491c.012-.07-.051-.182.088-.21.163-.034.062.152.151.18.116-.12.221-.244.341-.353a.2.2,0,0,0,.055-.23.865.865,0,0,1,.267-.925c.042.276.08.526.122.8a3.484,3.484,0,0,1,.32-.223c.134-.072.121-.151.07-.279a.849.849,0,0,1,.318-1.205,2.616,2.616,0,0,1,.081.961c.163-.265.257-.593.629-.715v.587c.162,0,.326,0,.331-.18.025-.6.43-.866.942-1.061a5.27,5.27,0,0,1-.582,1.085,1.161,1.161,0,0,0,.695-.588,1.7,1.7,0,0,1,.9-.765.917.917,0,0,1-.723,1.057c-.251.05-.34.27-.555.373a1.572,1.572,0,0,0,.145.09c.067.03.08.07.047.136s-.075.058-.137.043a1.887,1.887,0,0,0-1.237.125c.632.232,1,.8,1.645.953a.683.683,0,0,1-.961.231.72.72,0,0,0-.742.061c.2.066.378.126.56.184.07.023.128.066.122.139a.149.149,0,0,1-.089.1,1.564,1.564,0,0,1-.852.008.212.212,0,0,1-.153-.16c-.045-.213-.156-.124-.263-.062a.3.3,0,0,0,.03.048c.139.148.377.37.293.483-.114.154-.383,0-.58-.053a.67.67,0,0,1-.106-.044.9.9,0,0,0-1.3.286,3.689,3.689,0,0,0-.835,2.111,20.387,20.387,0,0,0-.06,4.355,3.972,3.972,0,0,0,.128.709,1.3,1.3,0,0,0,.987.991,1.784,1.784,0,0,1,1.215.938,1.4,1.4,0,0,0,.617.591c.08.039.165.079.118.19s-.131.056-.2.047a1.607,1.607,0,0,1-.788-.387c-.022.025-.041.037-.043.051-.026.133.042.329-.14.368-.2.045-.228-.166-.286-.3a1.564,1.564,0,0,0-1.507-.959c.353.408.693.81,1.039,1.207a2.5,2.5,0,0,1,.447.7c.03.071.066.148,0,.211s-.162.025-.238-.021a1.223,1.223,0,0,1-.348-.342,1.837,1.837,0,0,0-.637-.558c-.077.182-.153.355-.252.584a4.075,4.075,0,0,0-.406-1.186c-.231-.336-.634-.5-.9-.857a7.251,7.251,0,0,1-.76,1.53l-.2-.419c-.272.261-.62.422-.694.835a1.115,1.115,0,0,0,.008.567c.025.074.088.173-.038.217s-.134-.087-.166-.153a1.22,1.22,0,0,1,.08-1.162c.209-.391.375-.8.56-1.2.033-.061.1-.106.085-.194-.08-.01-.109.05-.144.1l-.444.412c-.066.06-.137.124-.229.076s-.049-.154-.043-.235c.007-.111.141-.249.039-.319-.122-.085-.192.109-.3.159a3.632,3.632,0,0,0-1.508,1.348.611.611,0,0,1-.091.11c-.075.067-.165.137-.257.071s-.048-.167-.007-.242a3.052,3.052,0,0,1,.948-1.25c.322-.209.661-.39,1-.578a7.9,7.9,0,0,0,.876-.558,2.171,2.171,0,0,0,.735-1.888,34.376,34.376,0,0,0-.1-4.447,2.257,2.257,0,0,0-.859-1.484c-.1-.088-.171-.018-.258.01a1.088,1.088,0,0,1-.726.1c-.118-.041-.226-.115-.231-.231-.009-.153.147-.11.239-.136.126-.037.258-.071.389-.105-.012-.028-.012-.049-.024-.058-.169-.128-.333-.34-.509-.352-.135-.009-.286.237-.432.369a.358.358,0,0,1-.066.056c-.148.093-.321.215-.468.059s.047-.271.126-.393c.013-.021.029-.043.066-.1-.267-.023-.5-.078-.693.153-.045.053-.1.188-.226.093s.062-.151.03-.258a1.38,1.38,0,0,0-1.157.336.483.483,0,0,1-.483.127c-.052-.015-.111-.043-.1-.118a.573.573,0,0,1,.319-.421c.058-.034.138-.079.189-.061.427.158.819-.184,1.25-.047-.01-.139-.042-.2-.166-.205a1.2,1.2,0,0,1-.337-.056c-.1-.033-.27-.03-.272-.157,0-.109.139-.172.235-.235a2.363,2.363,0,0,1,.8-.237.434.434,0,0,0,.254-.087.738.738,0,0,0-.9,0c-.06.05-.169.227-.275.063s.121-.139.17-.219c.02-.029.06-.045.12-.087-.227-.068-.432-.122-.632-.192-.124-.044-.115.049-.143.113a.6.6,0,0,1-1.014.139c-.053-.062-.1-.127-.058-.208s.123-.079.2-.075c.163.009.325.026.49.031a.17.17,0,0,0,.155-.114c.031-.084-.061-.1-.112-.136a3.509,3.509,0,0,1-.706-.5.994.994,0,0,1-.222-.3c-.038-.083-.062-.164.017-.239s.137-.04.214-.016a.9.9,0,0,1,.669.531,1.075,1.075,0,0,0,.145.211c.012.022.025.044.035.066.034.048.045.12.126.117.011.045.028.088.082.1a.075.075,0,0,0,.112.035l-.058-.079-.093-.092c-.037-.041-.073-.081-.107-.122-.012-.023-.022-.047-.034-.07-.025-.134-.016-.267.141-.3.217-.044.29.135.376.285.1.54.1.54.538.605a3.929,3.929,0,0,1-.483-.651.6.6,0,0,1-.036-.312c.03-.171.2-.248.317-.121a1.838,1.838,0,0,1,.658,1.113c.007.124.085.107.141.137.077.041.148.038.19-.057.019-.045.041-.086.062-.13.037-.073.045-.188.173-.135s.037.16,0,.211c-.205.309.074.349.24.491a2,2,0,0,0-.111-.809.481.481,0,0,1,.555.344.853.853,0,0,1,.085.478c-.061.372.185.543.464.76-.006-.249.079-.463-.164-.633a2.151,2.151,0,0,1,1.16.1,1.391,1.391,0,0,0-.2-.517c-.076-.153-.186-.011-.276-.03s-.191.139-.233-.036.109-.118.186-.148c.043-.019.089-.036.139-.057-.071-.172-.211-.294-.276-.468s-.246-.106-.383-.122c-.057-.007-.116.007-.173,0-.089-.017-.246.07-.246-.1s.163-.068.249-.1a.418.418,0,0,1,.087-.008c-.177-.288-.226-.288-.523-.146a1.369,1.369,0,0,1-1.2-.068.145.145,0,0,1-.1-.157c.022-.093.107-.13.2-.148a2.3,2.3,0,0,1,1.021.03c-.116-.171-.208-.248-.386-.235a5.642,5.642,0,0,1-.633-.025c-.064,0-.112-.011-.111-.093s.05-.094.112-.094c.151,0,.3,0,.485,0-.24-.235-.421-.4-.795-.255a1.3,1.3,0,0,1-1.487-.317,2.464,2.464,0,0,1,1.538.017.829.829,0,0,0-.87-.423c-.071.01-.222.071-.212-.1.007-.135.133-.071.208-.082a1.77,1.77,0,0,0,.269-.027,1.205,1.205,0,0,1-.628-1.318,1.126,1.126,0,0,1,.776.961.676.676,0,0,0,.316.515c.034-.4-.083-.824.263-1.157a1.042,1.042,0,0,1,.111,1.176c-.113.21-.094.331.13.419.043-.029.021-.077.017-.121,0-.067-.021-.139.083-.146s.089.066.107.129c.04.14-.019.317.144.413.02.013.047.039.058.035.041-.022.021-.057.007-.088m.13,4.021a.106.106,0,0,0,.126-.047.418.418,0,0,0,.249-.243.357.357,0,0,0-.278.207l-.093.085a.127.127,0,0,1-.011.021c0-.007,0-.016.007-.023m5.063-6.676c-.026-.034-.052-.066-.08-.1a6.405,6.405,0,0,1-.368-.546c-.16-.3-.364-.428-.707-.253a1.413,1.413,0,0,1,.281.7c.032.259-.183.479-.066.742.081-.19.161-.378.243-.569.145.086.163.249.237.361.139-.115.038-.422.34-.395.026.032.051.064.075.1.013.049,0,.107.069.148,0-.071.027-.131-.024-.188m-3.437,3.2c-.007-.022,0-.064-.043-.026.013.01.025.021.039.03.033.14.126.216.333.3a.527.527,0,0,0-.329-.3m1.576,1.493c-.014-.023-.013-.081-.053-.058s0,.062.03.079a1.119,1.119,0,0,0,.25.489c-.068-.226-.048-.409-.227-.509m2.364-4.435a.648.648,0,0,0,.4-.459.621.621,0,0,0-.41.447c-.021.01-.057.013-.019.045.01-.01.019-.022.029-.034m3.118.917a.623.623,0,0,0,.416-.468c-.221.128-.4.224-.412.473l-.028.016.013,0c.006,0,.007-.013.011-.019m-2.371-2.834a.959.959,0,0,0-.655.273.74.74,0,0,0,.654-.275c.011-.01.061,0,.017-.038a.383.383,0,0,1-.016.039m-7.753,5.551-.037-.023c.007.013.013.026.021.039a1.024,1.024,0,0,0,.444.653c.021.022.028.082.069.052s0-.066-.03-.087a1.658,1.658,0,0,0-.467-.635m7.923-2.309-.019-.016.022.015a.968.968,0,0,0,.336.633c0-.379-.075-.524-.34-.632m-3.352-.987-.029-.021a.2.2,0,0,0,.021.026c.146.391.381.511.866.414a2.082,2.082,0,0,0-.859-.419m3.818,5.908a1.336,1.336,0,0,1-.25-.057c-.419-.18-.532-.133-.811.4a3.979,3.979,0,0,1,1.057-.352l.144-.011c-.061-.057-.1-.037-.139.016m-2.69-5.11c.024,0,.047,0,.07,0-.007-.022-.014-.044-.02-.066-.056-.2-.21-.089-.313-.087a1.157,1.157,0,0,1-.87-.22,2.336,2.336,0,0,1-.45-.929.482.482,0,0,0-.351-.31.733.733,0,0,1-.121.573c-.2.209-.1.425-.061.646a1.65,1.65,0,0,0,.2-.289.118.118,0,0,1,.145-.061c.06.013.07.058.07.106a1.71,1.71,0,0,1-.256,1.105.928.928,0,0,0-.147.742c.1-.114.308-.07.278-.2-.045-.188.059-.134.137-.132a1.315,1.315,0,0,1,1.055.445c.039.046.058.126.141.122.24-.012.234-.016.134.222a1.009,1.009,0,0,0-.042.933,3.829,3.829,0,0,0,.493-1.386c.017-.121-.071-.119-.137-.139a4.913,4.913,0,0,1-.989-.6c.45-.322.831-.082,1.217.068,0-.259,0-.254-.24-.358-.08-.037-.253-.016-.19-.18.054-.14.164,0,.249-.011m-2.582,14.657c.1.03.132-.062.176-.111a1.591,1.591,0,0,1,.844-.507c.014.019.027.039.042.058a7.639,7.639,0,0,0-.724,1.477c-.043.022-.053.053-.019.087,0,0,.04-.03.064-.046.065-.054.138-.1.2-.167.158-.154.3-.241.378.1a4.659,4.659,0,0,0,.573-1.2c.068-.212.17-.212.293-.044a1.764,1.764,0,0,0,.45.447,1.658,1.658,0,0,1,.748,1.093c.354-.3.529.123.835.217-.235-.287-.432-.534-.639-.773s-.434-.475-.664-.727c.487-.19.878.054,1.284.174a1.521,1.521,0,0,1,.889.929c.025-.536-.026-.509.389-.316a1.516,1.516,0,0,0-.942-.9,1.767,1.767,0,0,1-1.457-1.8,19.232,19.232,0,0,1-.038-3.751,4.6,4.6,0,0,1,1.1-3.151c-.1.026-.147.04-.192.049-.221.042-.459.094-.62-.1s-.038-.416.05-.622c.122-.286.234-.578.365-.9-.314.188-.367.495-.525.732-.076.114-.117.3-.3.262-.162-.029-.145-.2-.18-.327a5.694,5.694,0,0,1-.07-2.08,2.025,2.025,0,0,0-.333,1.061,10.8,10.8,0,0,0,.085,1.354c.017.107.015.225-.1.276a.233.233,0,0,1-.279-.1,5.326,5.326,0,0,1-1.051-1.505,1.209,1.209,0,0,0-.331-.491l.287.546a2.053,2.053,0,0,0,.427.9,3.188,3.188,0,0,1,.466.953.225.225,0,0,1-.035.267c-.085.076-.185.035-.272,0a3.248,3.248,0,0,1-1.12-.752,1.519,1.519,0,0,0-.818-.436,6.064,6.064,0,0,0,.791.569,2.731,2.731,0,0,1,1.262,2.215c.1,1.463.079,2.927.048,4.392a2.2,2.2,0,0,1-1.085,1.952l-.545.336c.254.039.334.166.3.37a.163.163,0,0,0-.017.015l0,.013c0-.011.007-.021.01-.03m3.928-14.073c-.273.158-.5.271-.7.412-.139.1-.327.211-.361.349-.094.387-.24.757-.377,1.156a2.6,2.6,0,0,0,.8-.573c.071-.071.194-.124.019-.246-.124-.085-.082-.245,0-.367s.2-.224.331-.19.029.2.077.3c0,.007.01.015.03.045.194-.271.006-.587.185-.883m-2.653,5.25a1.361,1.361,0,0,0-.166-.473c-.163-.4-.368-.736-.876-.724a1.282,1.282,0,0,1-.331-.087c-.107.3.107.422.306.566a.686.686,0,0,1,.051-.118c.04-.058.016-.2.162-.134.117.051.052.139.021.191-.117.2-.025.31.143.414a3.715,3.715,0,0,0,.69.364m-1.29-5.429a.736.736,0,0,1-.45.642c-.16.059-.045.139-.023.2.011.034-.006.171.1.1.217-.135.312-.011.4.162a.386.386,0,0,0,.278.221c-.128-.447.182-.936-.306-1.323m1.361-2.294c-.194-.4-.2-.4-.573-.482a1.654,1.654,0,0,1-.47-.214c-.1-.058-.173-.166-.313-.186.029.2.057.365.081.536s.041.331.062.495c.235-.092.116-.482.425-.444a1.6,1.6,0,0,1,.622.222c.039.023.085.038.166.074m3.755,6.438.009.05c.131-.022.262-.052.4-.066a1.415,1.415,0,0,1,.729.128c.114.051.24.06.3-.076.064-.165-.1-.152-.184-.188-.2-.086-.4-.171-.464-.415l-.782.566m-5.438-2.6c-.071.639-.071.639.624.948.024-.281.094-.565-.276-.7a1.489,1.489,0,0,1-.348-.247m1.355.53c.1.144-.122.433.267.34.09-.022.189.081.26.163.094.107.185.218.284.335.068-.167.131-.315.194-.464.039-.1.053-.174-.09-.165a2.476,2.476,0,0,1-.914-.209m.128-1.007c.052.226-.1.463.025.55s.368.033.559.064c.318.051.144-.252.283-.389a1.277,1.277,0,0,1-.866-.226m.713,3.723a6.7,6.7,0,0,1-.064-.931c.007-.212,0-.213-.2-.258-.182.444-.282.889.262,1.189m-2.99-.414a2.013,2.013,0,0,0-.66-.771c0,.2-.156.272-.291.377.34.115.547.473.952.394m4.055-5.2c-.006.147-.152.186-.089.322a2.4,2.4,0,0,1,.139,1.023c.169-.414.532-.824.03-1.251-.013-.012-.023-.026-.081-.094m-1.8,1.867c-.116-.1-.151-.263-.359-.169a.441.441,0,0,0-.291.62c.048.15.117.094.179.018a1.746,1.746,0,0,1,.472-.469m2.83-1.534c-.244.231-.555.406-.651.814.372-.194.632-.41.651-.814m-3.817-2.925a1.252,1.252,0,0,0,.662.449c.052.017.122.052.148-.015a.17.17,0,0,0-.035-.158,1.462,1.462,0,0,0-.775-.276m.806,7.082a2.143,2.143,0,0,1,.107-.557c.06-.148.254-.289.042-.483a.717.717,0,0,1-.29.491.1.1,0,0,0-.043.141c.064.135.124.272.185.409m1.558-7.573c-.139.374-.083.573.205.722.029-.271.057-.531-.205-.722m-5.552,7.842c.417.135.684-.093.975-.245a2.035,2.035,0,0,0-.975.245m8.333-2.123a1.228,1.228,0,0,0,.856-.387c-.291.075-.626.049-.856.387m-6.2-3.234c-.054-.282.084-.6-.121-.9-.226.358.011.617.121.9m2.018,3.283a1.941,1.941,0,0,0,.593.223c.057.017.138.049.158-.054a.115.115,0,0,0-.107-.141,1.188,1.188,0,0,0-.644-.028m3.216-6.018a.584.584,0,0,0,.142-.576.145.145,0,0,0-.062-.088c-.057-.023-.083.034-.105.071a.736.736,0,0,0,.025.592m-7.572,3.856a.556.556,0,0,0-.378-.6.705.705,0,0,0,.378.6m1.679-2.089a1.875,1.875,0,0,0-.359-.852,1.3,1.3,0,0,0,.359.852m2.7,3.1c.263.331.348.372.674.35a.883.883,0,0,0-.674-.35m1.093-2.271a.694.694,0,0,0-.011-.757c-.183.259-.1.473.011.757m-3.741,2.5a1.11,1.11,0,0,0-.072-.831.868.868,0,0,0,.072.831m1.468-3c-.1-.263.008-.564-.13-.869a.766.766,0,0,0,.13.869m3.11,4.86a.657.657,0,0,0,.035.776,1.6,1.6,0,0,0-.035-.776m-1.016-2.661a1.447,1.447,0,0,0,.508.331.1.1,0,0,0,.145-.052c.026-.062-.027-.086-.066-.1a1.037,1.037,0,0,0-.587-.175M372,947.974c-.466.121-.526.233-.351.624-.006-.275.154-.428.351-.624m3.27,1.54c-.428.045-.477.077-.536.335a.915.915,0,0,0,.536-.335m-5.641-4.5a.565.565,0,0,0-.546-.234c.15.237.231.272.546.234m-2.09,1.752a.721.721,0,0,0,.688.026,1.065,1.065,0,0,0-.688-.026M372.379,950a1.175,1.175,0,0,0-.039-.8.827.827,0,0,0,.039.8m1.76-7.141c.226-.192.132-.418.073-.675a.88.88,0,0,0-.073.675m-2.294-1.094a1.664,1.664,0,0,0,.25.694.657.657,0,0,0-.25-.694m3.819,2.941a.392.392,0,0,0,.374.293c.053,0,.122-.05.071-.117-.106-.139-.23-.261-.445-.176m1.441,2.087c.286.114.4.109.594-.013a.6.6,0,0,0-.594.013m.835,3.6a.7.7,0,0,0,.632.079c-.222-.124-.4-.214-.632-.079m-7.027-.587a.864.864,0,0,0,.715.237,1.521,1.521,0,0,0-.715-.237m3.808-.75a1.281,1.281,0,0,0,.054-.673.542.542,0,0,0-.054.673m-5.8-1.216c.26.041.491.156.724-.007a1.265,1.265,0,0,0-.724.007m4.707-4.829a1.112,1.112,0,0,0-.593-.223.457.457,0,0,0,.593.223m5.439,5.442c.313-.175.351-.226.372-.455a.618.618,0,0,0-.372.455m-7.261.45a.437.437,0,0,0,.117-.541.877.877,0,0,0-.117.541m3.341-2.354a1.737,1.737,0,0,0,.224-.669.878.878,0,0,0-.224.669m-8.344,1.781c-.076-.256-.185-.406-.464-.4a1.287,1.287,0,0,0,.464.4m2.926.733a.865.865,0,0,0,.128.654,1.039,1.039,0,0,0-.128-.654m1.994-3.615c-.233.249-.233.249-.179.514a.794.794,0,0,0,.179-.514m4.9,3.3a.374.374,0,0,0-.055.523.808.808,0,0,0,.055-.523m-2.378-4.157a.811.811,0,0,0,.076.637,1.628,1.628,0,0,0-.076-.637m-1.883-.677a.641.641,0,0,0-.485-.185.472.472,0,0,0,.485.185m-3.745,1.61c-.1.15-.051.316-.06.52a.5.5,0,0,0,.06-.52m1.829,1.571c.019.245-.034.418.105.6a.826.826,0,0,0-.105-.6m1.035-2.7a.485.485,0,0,0,.021-.473.615.615,0,0,0-.021.473m1.326.05c-.213-.1-.339-.246-.576-.193a.693.693,0,0,0,.576.193m-3.336-.28c-.17-.048-.286-.094-.389.017a.072.072,0,0,0,.007.069.333.333,0,0,0,.381-.086m-.38,6.1c-.126-.068-.241-.167-.421-.112.109.185.265.148.421.112m1.867-3-.013-.01v.016Z" transform="translate(-356.304 -913.877)" fill="#1f1f1f"/>
      <path id="Path_6428" data-name="Path 6428" d="M373.044,961.268a1.586,1.586,0,0,0-.843.506c-.043.049-.077.141-.178.111l.007,0c.029-.205-.05-.333-.3-.371.205-.125.375-.231.546-.336a2.2,2.2,0,0,0,1.085-1.952c.032-1.464.052-2.927-.047-4.392a2.732,2.732,0,0,0-1.263-2.214,6.029,6.029,0,0,1-.79-.569,1.542,1.542,0,0,1,.82.437,3.217,3.217,0,0,0,1.119.751c.087.039.185.08.271,0a.224.224,0,0,0,.034-.267,3.177,3.177,0,0,0-.465-.953,2.056,2.056,0,0,1-.428-.9.639.639,0,0,0,.043-.052,5.378,5.378,0,0,0,1.053,1.505.236.236,0,0,0,.278.1c.116-.051.118-.171.1-.276a10.541,10.541,0,0,1-.083-1.354,1.994,1.994,0,0,1,.332-1.061,5.678,5.678,0,0,0,.07,2.08c.034.124.017.3.182.328.183.033.224-.148.3-.264.157-.237.209-.544.524-.73-.131.326-.242.617-.364.9-.089.205-.217.418-.051.621s.4.146.62.1c.046-.01.091-.025.192-.051a4.6,4.6,0,0,0-1.1,3.151,19.38,19.38,0,0,0,.038,3.752,1.77,1.77,0,0,0,1.457,1.8,1.5,1.5,0,0,1,.942.9c-.415-.194-.363-.221-.389.316a1.512,1.512,0,0,0-.888-.929c-.408-.12-.8-.366-1.285-.175.231.252.454.485.665.728s.4.485.639.771c-.305-.094-.483-.512-.837-.217a1.652,1.652,0,0,0-.748-1.094,1.777,1.777,0,0,1-.448-.445c-.122-.169-.226-.168-.293.043a4.583,4.583,0,0,1-.576,1.2c-.073-.342-.217-.254-.377-.1-.061.059-.132.109-.2.164l-.045-.041a7.71,7.71,0,0,1,.725-1.477l.026-.058h-.069" transform="translate(-357.237 -915.518)" fill="#f9a700"/>
      <path id="Path_6429" data-name="Path 6429" d="M378.382,952.817a4.04,4.04,0,0,0-1.058.352c.28-.536.393-.585.811-.4a1.431,1.431,0,0,0,.25.057Z" transform="translate(-358.327 -915.999)" fill="#267f36"/>
      <path id="Path_6430" data-name="Path 6430" d="M376.872,946.514c-.019.4-.277.619-.651.814.1-.409.406-.584.651-.814" transform="translate(-358.129 -914.894)" fill="#267f36"/>
      <path id="Path_6431" data-name="Path 6431" d="M372.361,942.947a1.456,1.456,0,0,1,.776.276.169.169,0,0,1,.035.157c-.025.067-.1.033-.15.016a1.263,1.263,0,0,1-.661-.449" transform="translate(-357.436 -914.253)" fill="#267f36"/>
      <path id="Path_6432" data-name="Path 6432" d="M373.962,945.652a2.1,2.1,0,0,1,.861.421c-.488.1-.72-.022-.868-.413Z" transform="translate(-357.722 -914.739)" fill="#267f36"/>
      <path id="Path_6433" data-name="Path 6433" d="M375.227,942.349c.26.191.235.451.205.722-.286-.149-.344-.348-.205-.722" transform="translate(-357.938 -914.146)" fill="#267f36"/>
      <path id="Path_6434" data-name="Path 6434" d="M368.476,951.855a2.016,2.016,0,0,1,.974-.246c-.29.152-.557.38-.974.246" transform="translate(-356.738 -915.809)" fill="#267f36"/>
      <path id="Path_6435" data-name="Path 6435" d="M378.633,949.234c.23-.337.564-.311.856-.386a1.224,1.224,0,0,1-.856.386" transform="translate(-358.563 -915.313)" fill="#267f36"/>
      <path id="Path_6436" data-name="Path 6436" d="M371.024,945.182c-.109-.278-.346-.536-.121-.9.205.294.068.614.121.9" transform="translate(-357.157 -914.493)" fill="#267f36"/>
      <path id="Path_6437" data-name="Path 6437" d="M373.532,949.373a1.17,1.17,0,0,1,.643.026.117.117,0,0,1,.11.141c-.022.1-.1.071-.161.056a2.021,2.021,0,0,1-.592-.223" transform="translate(-357.646 -915.401)" fill="#267f36"/>
      <path id="Path_6438" data-name="Path 6438" d="M377.434,941.9a.719.719,0,0,1-.025-.591c.021-.039.048-.094.1-.073a.146.146,0,0,1,.063.088.583.583,0,0,1-.143.576" transform="translate(-358.333 -913.944)" fill="#267f36"/>
      <path id="Path_6439" data-name="Path 6439" d="M368.14,946.613a.7.7,0,0,1-.378-.6.559.559,0,0,1,.378.6" transform="translate(-356.61 -914.804)" fill="#267f36"/>
      <path id="Path_6440" data-name="Path 6440" d="M370.189,944.012a1.313,1.313,0,0,1-.361-.852,1.865,1.865,0,0,1,.361.852" transform="translate(-356.981 -914.291)" fill="#267f36"/>
      <path id="Path_6441" data-name="Path 6441" d="M373.555,947.98a.879.879,0,0,1,.674.352c-.326.022-.41-.021-.674-.352" transform="translate(-357.65 -915.157)" fill="#267f36"/>
      <path id="Path_6442" data-name="Path 6442" d="M374.863,945.046c-.111-.282-.2-.5-.01-.756a.7.7,0,0,1,.01.756" transform="translate(-357.864 -914.494)" fill="#267f36"/>
      <path id="Path_6443" data-name="Path 6443" d="M370.3,948.08a.867.867,0,0,1-.073-.829,1.114,1.114,0,0,1,.073.829" transform="translate(-357.039 -915.026)" fill="#267f36"/>
      <path id="Path_6444" data-name="Path 6444" d="M372.072,944.416a.768.768,0,0,1-.13-.87c.137.305.032.607.13.87" transform="translate(-357.347 -914.361)" fill="#267f36"/>
      <path id="Path_6445" data-name="Path 6445" d="M375.884,950.53a1.626,1.626,0,0,1,.037.777.661.661,0,0,1-.037-.777" transform="translate(-358.049 -915.615)" fill="#267f36"/>
      <path id="Path_6446" data-name="Path 6446" d="M378.052,946.856c.264.106.342.252.338.63a.97.97,0,0,1-.335-.633Z" transform="translate(-358.458 -914.955)" fill="#267f36"/>
      <path id="Path_6447" data-name="Path 6447" d="M374.671,947.286a1.046,1.046,0,0,1,.585.173c.039.019.094.043.067.1a.105.105,0,0,1-.146.052,1.441,1.441,0,0,1-.506-.331" transform="translate(-357.851 -915.032)" fill="#267f36"/>
      <path id="Path_6448" data-name="Path 6448" d="M377.172,951.409a.9.9,0,0,1-.536.335c.06-.258.11-.288.536-.335" transform="translate(-358.204 -915.773)" fill="#267f36"/>
      <path id="Path_6449" data-name="Path 6449" d="M368.818,950.341a1.025,1.025,0,0,1-.444-.654l.016-.016a1.667,1.667,0,0,1,.468.633.28.28,0,0,0-.039.037" transform="translate(-356.72 -915.461)" fill="#267f36"/>
      <path id="Path_6450" data-name="Path 6450" d="M370.295,945.872c-.316.039-.4,0-.546-.232a.563.563,0,0,1,.546.232" transform="translate(-356.967 -914.737)" fill="#267f36"/>
      <path id="Path_6451" data-name="Path 6451" d="M367.867,948.049a1.054,1.054,0,0,1,.687.026.725.725,0,0,1-.687-.026" transform="translate(-356.629 -915.161)" fill="#267f36"/>
      <path id="Path_6452" data-name="Path 6452" d="M373.735,951.826a.824.824,0,0,1-.039-.8,1.172,1.172,0,0,1,.039.8" transform="translate(-357.66 -915.704)" fill="#267f36"/>
      <path id="Path_6453" data-name="Path 6453" d="M375.9,943.15a.878.878,0,0,1,.073-.676c.06.257.153.482-.073.676" transform="translate(-358.066 -914.168)" fill="#267f36"/>
      <path id="Path_6454" data-name="Path 6454" d="M377.7,942.9a.739.739,0,0,1-.656.275.966.966,0,0,1,.657-.273Z" transform="translate(-358.277 -914.245)" fill="#267f36"/>
      <path id="Path_6455" data-name="Path 6455" d="M373.113,941.963a.653.653,0,0,1,.249.694,1.663,1.663,0,0,1-.249-.694" transform="translate(-357.571 -914.076)" fill="#267f36"/>
      <path id="Path_6456" data-name="Path 6456" d="M377.768,945.543c.216-.086.339.036.445.175.051.067-.021.118-.073.116a.389.389,0,0,1-.372-.291" transform="translate(-358.407 -914.714)" fill="#267f36"/>
      <path id="Path_6457" data-name="Path 6457" d="M379.525,948.074a.591.591,0,0,1,.592-.013c-.194.122-.306.125-.592.013" transform="translate(-358.723 -915.158)" fill="#267f36"/>
      <path id="Path_6458" data-name="Path 6458" d="M380.542,952.469c.234-.137.41-.047.633.077a.7.7,0,0,1-.633-.077" transform="translate(-358.905 -915.951)" fill="#267f36"/>
      <path id="Path_6459" data-name="Path 6459" d="M371.977,951.767a1.534,1.534,0,0,1,.715.237.862.862,0,0,1-.715-.237" transform="translate(-357.367 -915.837)" fill="#267f36"/>
      <path id="Path_6460" data-name="Path 6460" d="M376.6,950.706a.542.542,0,0,1,.054-.673,1.28,1.28,0,0,1-.054.673" transform="translate(-358.181 -915.526)" fill="#267f36"/>
      <path id="Path_6461" data-name="Path 6461" d="M369.556,949.358a1.27,1.27,0,0,1,.723-.009c-.233.165-.463.049-.723.009" transform="translate(-356.932 -915.394)" fill="#267f36"/>
      <path id="Path_6462" data-name="Path 6462" d="M380.737,946.261c.007-.249.192-.345.413-.472a.628.628,0,0,1-.416.468Z" transform="translate(-358.94 -914.764)" fill="#267f36"/>
      <path id="Path_6463" data-name="Path 6463" d="M375.163,943.436a.457.457,0,0,1-.592-.224,1.136,1.136,0,0,1,.592.224" transform="translate(-357.833 -914.301)" fill="#267f36"/>
      <path id="Path_6464" data-name="Path 6464" d="M381.923,950.017a.613.613,0,0,1,.372-.455c-.022.231-.06.281-.372.455" transform="translate(-359.153 -915.441)" fill="#267f36"/>
      <path id="Path_6465" data-name="Path 6465" d="M373.072,950.547a.858.858,0,0,1,.116-.542.44.44,0,0,1-.116.542" transform="translate(-357.563 -915.521)" fill="#267f36"/>
      <path id="Path_6466" data-name="Path 6466" d="M377.142,947.651a.871.871,0,0,1,.224-.666,1.747,1.747,0,0,1-.224.666" transform="translate(-358.294 -914.978)" fill="#267f36"/>
      <path id="Path_6467" data-name="Path 6467" d="M376.921,945.13a.615.615,0,0,1,.41-.447.647.647,0,0,1-.4.457Z" transform="translate(-358.255 -914.565)" fill="#267f36"/>
      <path id="Path_6468" data-name="Path 6468" d="M366.87,949.881a1.3,1.3,0,0,1-.466-.4c.281,0,.39.148.466.4" transform="translate(-356.366 -915.426)" fill="#267f36"/>
      <path id="Path_6469" data-name="Path 6469" d="M370.534,950.863a1.051,1.051,0,0,1,.13.654.874.874,0,0,1-.13-.654" transform="translate(-357.105 -915.675)" fill="#267f36"/>
      <path id="Path_6470" data-name="Path 6470" d="M372.922,946.456a.8.8,0,0,1-.177.514c-.055-.265-.055-.265.177-.514" transform="translate(-357.499 -914.883)" fill="#267f36"/>
      <path id="Path_6471" data-name="Path 6471" d="M378.908,950.476a.821.821,0,0,1-.054.523.374.374,0,0,1,.054-.523" transform="translate(-358.588 -915.605)" fill="#267f36"/>
      <path id="Path_6472" data-name="Path 6472" d="M376.033,945.407a1.607,1.607,0,0,1,.076.639.829.829,0,0,1-.076-.639" transform="translate(-358.09 -914.695)" fill="#267f36"/>
      <path id="Path_6473" data-name="Path 6473" d="M373.637,944.541a.473.473,0,0,1-.485-.184.636.636,0,0,1,.485.184" transform="translate(-357.578 -914.505)" fill="#267f36"/>
      <path id="Path_6474" data-name="Path 6474" d="M369.165,946.544a.5.5,0,0,1-.059.52c.007-.2-.044-.368.059-.52" transform="translate(-356.85 -914.899)" fill="#267f36"/>
      <path id="Path_6475" data-name="Path 6475" d="M371.408,948.46a.816.816,0,0,1,.106.6c-.139-.178-.087-.353-.106-.6" transform="translate(-357.265 -915.243)" fill="#267f36"/>
      <path id="Path_6476" data-name="Path 6476" d="M372.883,951.2l-.043.054-.286-.545a1.209,1.209,0,0,1,.329.491" transform="translate(-357.471 -915.647)" fill="#267f36"/>
      <path id="Path_6477" data-name="Path 6477" d="M372.663,945.06a.627.627,0,0,1,.019-.473.48.48,0,0,1-.019.473" transform="translate(-357.484 -914.548)" fill="#267f36"/>
      <path id="Path_6478" data-name="Path 6478" d="M374.16,945.178a.7.7,0,0,1-.577-.192c.239-.053.364.089.577.192" transform="translate(-357.655 -914.617)" fill="#267f36"/>
      <path id="Path_6479" data-name="Path 6479" d="M370.134,944.872a.332.332,0,0,1-.381.085.075.075,0,0,1-.007-.068c.1-.111.22-.066.389-.017" transform="translate(-356.965 -914.59)" fill="#267f36"/>
      <path id="Path_6480" data-name="Path 6480" d="M369.665,952.285c-.154.035-.312.073-.421-.112.179-.057.3.042.421.112" transform="translate(-356.876 -915.907)" fill="#267f36"/>
      <path id="Path_6481" data-name="Path 6481" d="M374.048,950.647c.179.1.157.283.226.511a1.161,1.161,0,0,1-.252-.491.273.273,0,0,0,.025-.021" transform="translate(-357.734 -915.636)" fill="#267f36"/>
      <path id="Path_6482" data-name="Path 6482" d="M372.129,948.827a.523.523,0,0,1,.329.3c-.207-.08-.3-.156-.333-.3Z" transform="translate(-357.394 -915.309)" fill="#267f36"/>
      <path id="Path_6483" data-name="Path 6483" d="M370.265,952.916a.356.356,0,0,1,.278-.207.417.417,0,0,1-.248.243.433.433,0,0,0-.03-.036" transform="translate(-357.06 -916.007)" fill="#267f36"/>
      <path id="Path_6484" data-name="Path 6484" d="M378.617,952.843c.038-.052.08-.073.141-.016l-.144.012Z" transform="translate(-358.559 -916.022)" fill="#267f36"/>
      <path id="Path_6485" data-name="Path 6485" d="M368.954,950.444c.032.023.062.064.029.088s-.048-.03-.068-.052a.326.326,0,0,1,.039-.035" transform="translate(-356.817 -915.6)" fill="#267f36"/>
      <path id="Path_6486" data-name="Path 6486" d="M374.014,950.654c-.034-.019-.062-.059-.03-.078s.039.033.054.058a.154.154,0,0,0-.025.02" transform="translate(-357.725 -915.622)" fill="#267f36"/>
      <path id="Path_6487" data-name="Path 6487" d="M370.152,953.046l.094-.086c.008.013.019.024.027.037a.1.1,0,0,1-.123.046Z" transform="translate(-357.039 -916.052)" fill="#267f36"/>
      <path id="Path_6488" data-name="Path 6488" d="M373.951,945.655c-.007-.009-.015-.019-.022-.026.011.006.019.013.03.019Z" transform="translate(-357.718 -914.735)" fill="#267f36"/>
    </g>
  </g>
  <path id="Path_6489" data-name="Path 6489" d="M372.015,948.664l.015-.006-.012-.013Z" transform="translate(-357.374 -915.277)" fill="#267f36"/>
  <g id="Group_6423" data-name="Group 6423">
    <g id="Group_6422" data-name="Group 6422" clip-path="url(#clip-path)">
      <path id="Path_6490" data-name="Path 6490" d="M378.05,946.851a.119.119,0,0,0-.023-.015c.007,0,.013.012.021.018Z" transform="translate(-358.454 -914.952)" fill="#267f36"/>
      <path id="Path_6491" data-name="Path 6491" d="M370.148,953.062c0,.007,0,.016-.007.023a.119.119,0,0,0,.01-.021Z" transform="translate(-357.037 -916.07)" fill="#267f36"/>
      <path id="Path_6492" data-name="Path 6492" d="M376.924,945.239c-.009.011-.021.023-.03.034-.039-.033,0-.036.019-.045l.011.011" transform="translate(-358.247 -914.663)" fill="#267f36"/>
      <path id="Path_6493" data-name="Path 6493" d="M377.844,942.9a.383.383,0,0,0,.016-.039c.043.036-.006.028-.017.038Z" transform="translate(-358.42 -914.237)" fill="#267f36"/>
      <path id="Path_6494" data-name="Path 6494" d="M372.116,948.823l-.039-.032c.042-.037.036.006.043.027Z" transform="translate(-357.385 -915.3)" fill="#267f36"/>
      <path id="Path_6495" data-name="Path 6495" d="M380.729,946.359a.071.071,0,0,1-.01.019l-.015,0,.028-.019Z" transform="translate(-358.934 -914.866)" fill="#267f36"/>
      <path id="Path_6496" data-name="Path 6496" d="M368.37,949.682c-.007-.013-.013-.026-.021-.039.013.007.023.016.036.023Z" transform="translate(-356.715 -915.456)" fill="#267f36"/>
      <path id="Path_6497" data-name="Path 6497" d="M372.19,964.491c0,.01-.007.021-.011.032,0,0,0-.011,0-.015a.085.085,0,0,1,.018-.015Z" transform="translate(-357.403 -918.123)" fill="#f9a700"/>
      <path id="Path_6498" data-name="Path 6498" d="M373.436,963.738h.069l-.026.058c-.015-.019-.028-.039-.043-.058" transform="translate(-357.629 -917.987)" fill="#1f1f1f"/>
    </g>
  </g>
  <path id="Path_6499" data-name="Path 6499" d="M360.145,913.7l.827.275,1.054-.891-1.448-.172Z" transform="translate(-355.242 -908.859)" fill="#d60013"/>
  <path id="Path_6500" data-name="Path 6500" d="M388.26,913.085l1.054.891.827-.275-.432-.787Z" transform="translate(-360.292 -908.859)" fill="#d60013"/>
</svg>
